<svg width="28" height="28" viewBox="0 0 28 28" fill="none" xmlns="http://www.w3.org/2000/svg">
<path d="M23.3334 14.3198C23.3334 14.7628 23.0042 15.1289 22.5771 15.1868L22.4584 15.1948L4.95837 15.1948C4.47513 15.1948 4.08337 14.8031 4.08337 14.3198C4.08337 13.8768 4.41255 13.5108 4.83964 13.4528L4.95837 13.4448L22.4584 13.4448C22.9416 13.4448 23.3334 13.8366 23.3334 14.3198Z" fill="#212121"/>
<path d="M12.6339 20.7291C12.9763 21.0701 12.9775 21.6241 12.6365 21.9665C12.3266 22.2779 11.8405 22.3071 11.4974 22.0537L11.3991 21.9692L4.34076 14.9412C4.02852 14.6303 4.00011 14.1425 4.25556 13.7994L4.34071 13.7012L11.399 6.67199C11.7415 6.33099 12.2955 6.33214 12.6365 6.67456C12.9465 6.98584 12.9737 7.47201 12.7188 7.81403L12.6339 7.91199L6.19855 14.3215L12.6339 20.7291Z" fill="#212121"/>
</svg>
