<svg width="20" height="20" viewBox="0 0 20 20" fill="none" xmlns="http://www.w3.org/2000/svg">
<path d="M13.859 10.9425C13.8119 10.9908 13.6342 11.1975 13.4685 11.3675C12.4976 12.4367 9.96473 14.1867 8.63902 14.7208C8.43769 14.8067 7.92868 14.9883 7.65672 15C7.39613 15 7.14771 14.94 6.91066 14.8183C6.61516 14.6483 6.37811 14.3808 6.24821 14.065C6.1646 13.8458 6.03471 13.19 6.03471 13.1783C5.90481 12.4608 5.83337 11.295 5.83337 10.0067C5.83337 8.77917 5.90481 7.66083 6.01116 6.9325C6.02334 6.92083 6.15323 6.10583 6.2953 5.82667C6.55589 5.31667 7.0649 5 7.60964 5L7.65672 5C8.01149 5.0125 8.75755 5.32917 8.75755 5.34083C10.0118 5.87583 12.4862 7.54 13.4807 8.64583C13.4807 8.64583 13.7608 8.93 13.8826 9.1075C14.0725 9.3625 14.1667 9.67833 14.1667 9.99417C14.1667 10.3467 14.0604 10.675 13.859 10.9425Z" fill="#212121"/>
</svg>
