<svg width="28" height="28" viewBox="0 0 28 28" fill="none" xmlns="http://www.w3.org/2000/svg">
<path d="M24.5 11.6671H8.16671V8.29894C8.16671 7.13577 8.95771 6.05544 10.1045 5.86644C10.4395 5.80944 10.7829 5.82617 11.1108 5.91549C11.4386 6.0048 11.743 6.16453 12.0028 6.38356C12.2626 6.60258 12.4715 6.87563 12.6149 7.18366C12.7584 7.4917 12.8329 7.82731 12.8334 8.1671H15.1667C15.1661 7.51529 15.0291 6.8708 14.7645 6.27512C14.4999 5.67944 14.1135 5.14575 13.6302 4.70838C13.1469 4.27102 12.5774 3.93967 11.9583 3.73565C11.3393 3.53162 10.6843 3.45945 10.0357 3.52377C7.61021 3.75944 5.83337 5.9376 5.83337 8.37477V11.6671H3.50004C3.19062 11.6671 2.89388 11.79 2.67508 12.0088C2.45629 12.2276 2.33337 12.5243 2.33337 12.8338V15.1671C2.33337 18.2074 4.28637 20.7939 7.00004 21.7588V25.6671H9.33337V22.1671H18.6667V25.6671H21V21.7588C23.7137 20.7939 25.6667 18.2074 25.6667 15.1671V12.8338C25.6667 12.5243 25.5438 12.2276 25.325 12.0088C25.1062 11.79 24.8095 11.6671 24.5 11.6671Z" fill="#1AB65C"/>
</svg>
