<svg width="28" height="28" viewBox="0 0 28 28" fill="none" xmlns="http://www.w3.org/2000/svg">
<path d="M8.74992 16.3333C10.3607 16.3333 11.6666 15.0275 11.6666 13.4167C11.6666 11.8058 10.3607 10.5 8.74992 10.5C7.13909 10.5 5.83325 11.8058 5.83325 13.4167C5.83325 15.0275 7.13909 16.3333 8.74992 16.3333Z" fill="#1AB65C"/>
<path d="M20.0724 8.16667H13.9999C13.6905 8.16667 13.3938 8.28958 13.175 8.50838C12.9562 8.72717 12.8333 9.02391 12.8333 9.33333V17.5H4.66659V7H2.33325V23.3333H4.66659V19.8333H23.3333V23.3333H25.6666V13.7608C25.665 12.2776 25.0752 10.8556 24.0264 9.80687C22.9776 8.75809 21.5556 8.16821 20.0724 8.16667ZM15.1666 17.5V10.5H20.0724C20.937 10.5009 21.7658 10.8448 22.3772 11.4561C22.9885 12.0674 23.3323 12.8963 23.3333 13.7608V17.5H15.1666Z" fill="#1AB65C"/>
</svg>
