<svg width="19" height="19" viewBox="0 0 19 19" fill="none" xmlns="http://www.w3.org/2000/svg">
<path d="M0.791733 7.41574C0.714361 7.41574 0.640158 7.38501 0.585446 7.3303C0.530736 7.27559 0.5 7.20138 0.5 7.12401V0.791733C0.5 0.714361 0.530736 0.640157 0.585447 0.585447C0.640157 0.530736 0.714361 0.5 0.791733 0.5H7.12559C7.20297 0.5 7.27717 0.530736 7.33188 0.585446C7.38659 0.640158 7.41733 0.714361 7.41733 0.791733V7.12401C7.41733 7.20138 7.38659 7.27559 7.33188 7.3303C7.27717 7.38501 7.20297 7.41574 7.12559 7.41574H0.791733ZM11.876 7.41574C11.7986 7.41574 11.7244 7.38501 11.6697 7.3303C11.615 7.27559 11.5843 7.20138 11.5843 7.12401V0.791733C11.5843 0.71436 11.615 0.640157 11.6697 0.585446C11.7244 0.530736 11.7986 0.5 11.876 0.5H18.2083C18.2856 0.5 18.3598 0.530736 18.4146 0.585448C18.4693 0.640155 18.5 0.714357 18.5 0.791733V7.12401C18.5 7.20139 18.4693 7.27559 18.4146 7.33029C18.3598 7.38501 18.2856 7.41574 18.2083 7.41574H11.876ZM0.791733 18.5C0.714357 18.5 0.640155 18.4693 0.585448 18.4146C0.530736 18.3598 0.5 18.2856 0.5 18.2083V11.8744C0.5 11.797 0.530736 11.7228 0.585446 11.6681C0.640157 11.6134 0.71436 11.5827 0.791733 11.5827H7.12559C7.20297 11.5827 7.27717 11.6134 7.33188 11.6681C7.38659 11.7228 7.41733 11.797 7.41733 11.8744V18.2083C7.41733 18.2856 7.38659 18.3598 7.33188 18.4146C7.27717 18.4693 7.20297 18.5 7.12559 18.5H0.791733ZM11.876 18.5C11.7986 18.5 11.7244 18.4693 11.6697 18.4146C11.615 18.3598 11.5843 18.2856 11.5843 18.2083V11.8744C11.5843 11.797 11.615 11.7228 11.6697 11.6681C11.7244 11.6134 11.7986 11.5827 11.876 11.5827H18.2083C18.2856 11.5827 18.3598 11.6134 18.4146 11.6681C18.4693 11.7228 18.5 11.797 18.5 11.8744V18.2083C18.5 18.2856 18.4693 18.3598 18.4146 18.4146C18.3598 18.4693 18.2856 18.5 18.2083 18.5H11.876Z" fill="#1AB65C" stroke="#1AB65C"/>
</svg>
