<svg width="29" height="37" viewBox="0 0 29 37" fill="none" xmlns="http://www.w3.org/2000/svg">
<path d="M27.7183 14.1035C27.9882 14.1035 28.2079 14.3224 28.1985 14.5921C28.1212 16.8225 27.5155 19.0053 26.4283 20.9597C25.2619 23.0565 23.5797 24.8211 21.541 26.0865C19.5023 27.3519 17.1744 28.0762 14.7777 28.1909C12.3809 28.3056 9.99457 27.8069 7.84433 26.742C5.6941 25.6771 3.85111 24.0812 2.48973 22.1053C1.12835 20.1294 0.293599 17.8389 0.0644566 15.4503C-0.164686 13.0618 0.219355 10.6543 1.18025 8.45565C2.07583 6.40639 3.44492 4.60169 5.17215 3.18838C5.38103 3.01747 5.68826 3.05954 5.85184 3.27422C6.01542 3.48889 5.97334 3.79483 5.7649 3.96628C4.16972 5.27843 2.90482 6.95017 2.07583 8.84704C1.18152 10.8934 0.824098 13.134 1.03736 15.357C1.25062 17.58 2.02753 19.7118 3.29456 21.5508C4.5616 23.3897 6.27687 24.875 8.27809 25.8661C10.2793 26.8572 12.5003 27.3214 14.731 27.2146C16.9616 27.1079 19.1281 26.4338 21.0256 25.2561C22.923 24.0784 24.4886 22.4361 25.5742 20.4845C26.5806 18.6755 27.1437 16.6562 27.2205 14.5921C27.2306 14.3224 27.4484 14.1035 27.7183 14.1035Z" fill="#1AB65C"/>
<path d="M24.9757 14.1036C25.1692 14.1036 25.3268 14.2606 25.3207 14.4541C25.2648 16.2423 24.7822 17.993 23.9108 19.5594C22.9826 21.228 21.644 22.6321 20.0217 23.6391C18.3994 24.646 16.5471 25.2223 14.6399 25.3136C12.7327 25.4049 10.8337 25.008 9.1227 24.1607C7.41166 23.3133 5.94511 22.0434 4.8618 20.471C3.77849 18.8987 3.11425 17.076 2.93191 15.1754C2.74957 13.2747 3.05517 11.359 3.81979 9.6094C4.53758 7.96698 5.63759 6.52196 7.02605 5.39376C7.17629 5.27168 7.39662 5.30182 7.51395 5.4558C7.63128 5.60978 7.60115 5.82927 7.45117 5.95166C6.15745 7.00736 5.13219 8.35701 4.46217 9.89014C3.74531 11.5304 3.4588 13.3265 3.62975 15.1084C3.8007 16.8904 4.42345 18.5992 5.43909 20.0733C6.45473 21.5474 7.82967 22.738 9.43383 23.5324C11.038 24.3269 12.8183 24.6989 14.6064 24.6133C16.3944 24.5278 18.1311 23.9874 19.652 23.0434C21.173 22.0994 22.428 20.7829 23.2982 19.2186C24.1116 17.7565 24.5637 16.123 24.6193 14.4541C24.6257 14.2606 24.7821 14.1036 24.9757 14.1036Z" fill="#1AB65C"/>
<path d="M8.14161 16.3203C8.51661 16.7422 8.90723 17.1328 9.31348 17.4922C9.71973 17.8359 10.1494 18.1406 10.6025 18.4062C11.0557 18.6562 11.5322 18.8516 12.0322 18.9922C12.5479 19.1328 13.0869 19.2031 13.6494 19.2031C14.3525 19.2031 15.0557 19.0781 15.7588 18.8281C16.4619 18.5625 17.0947 18.2031 17.6572 17.75C18.2354 17.2812 18.7041 16.7266 19.0635 16.0859C19.4229 15.4453 19.6025 14.75 19.6025 14C19.6025 13.5781 19.501 13.2109 19.2979 12.8984C19.0947 12.5703 18.8291 12.2969 18.501 12.0781C18.1885 11.8594 17.8291 11.6953 17.4229 11.5859C17.0322 11.4609 16.6416 11.3984 16.251 11.3984C16.0479 11.3984 15.79 11.4297 15.4775 11.4922C15.1807 11.5391 14.8604 11.6094 14.5166 11.7031C14.1729 11.7812 13.8213 11.8828 13.4619 12.0078C13.1025 12.1172 12.7666 12.2422 12.4541 12.3828C12.1416 12.5234 11.876 12.6719 11.6572 12.8281C11.4385 12.9688 11.2822 13.1094 11.1885 13.25C11.1885 13.3281 11.1729 13.4609 11.1416 13.6484C11.126 13.8359 11.1025 14.0469 11.0713 14.2812C11.0557 14.5 11.04 14.7109 11.0244 14.9141C11.0088 15.1016 10.9932 15.2344 10.9775 15.3125C10.9775 15.4062 10.9619 15.5234 10.9307 15.6641C10.8994 15.7891 10.8604 15.9219 10.8135 16.0625C10.7822 16.1875 10.7275 16.3125 10.6494 16.4375C10.5869 16.5625 10.501 16.6641 10.3916 16.7422C10.1729 16.6484 10.0166 16.5 9.92286 16.2969C9.82911 16.0781 9.76661 15.8438 9.73536 15.5938C9.71973 15.3281 9.71973 15.0703 9.73536 14.8203C9.75098 14.5547 9.7588 14.3359 9.7588 14.1641C9.7588 14.0078 9.7588 13.75 9.7588 13.3906C9.77442 13.0312 9.79005 12.6094 9.80567 12.125C9.83692 11.6406 9.87598 11.1172 9.92286 10.5547C9.98536 9.97656 10.0635 9.40625 10.1572 8.84375C10.251 8.26562 10.3682 7.71875 10.5088 7.20312C10.6494 6.67188 10.8213 6.20313 11.0244 5.79688C11.2275 5.375 11.4619 5.04688 11.7275 4.8125C12.0088 4.5625 12.3213 4.4375 12.665 4.4375C13.0713 4.4375 13.4307 4.53125 13.7432 4.71875C14.0713 4.90625 14.3447 5.14844 14.5635 5.44531C14.7979 5.72656 14.9775 6.05469 15.1025 6.42969C15.2432 6.78906 15.3135 7.15625 15.3135 7.53125C15.3135 7.82812 15.2588 8.11719 15.1494 8.39844C15.04 8.66406 14.9229 8.92188 14.7979 9.17188C14.6885 9.42188 14.5791 9.67188 14.4697 9.92188C14.3604 10.1719 14.3057 10.4297 14.3057 10.6953C14.6807 10.6953 15.1025 10.7031 15.5713 10.7188C16.04 10.7344 16.5166 10.7734 17.001 10.8359C17.4854 10.8984 17.9541 11.0078 18.4072 11.1641C18.876 11.3047 19.29 11.5078 19.6494 11.7734C20.0088 12.0234 20.29 12.3438 20.4932 12.7344C20.7119 13.125 20.8213 13.6016 20.8213 14.1641C20.8213 14.7266 20.7197 15.2656 20.5166 15.7812C20.3135 16.2812 20.0322 16.75 19.6729 17.1875C19.3291 17.625 18.9229 18.0156 18.4541 18.3594C18.001 18.7031 17.5088 19 16.9775 19.25C16.4619 19.5 15.9307 19.6953 15.3838 19.8359C14.8525 19.9609 14.3369 20.0234 13.8369 20.0234C13.5713 20.0234 13.2354 19.9844 12.8291 19.9062C12.4385 19.8125 12.0322 19.6953 11.6104 19.5547C11.1885 19.3984 10.7666 19.2109 10.3447 18.9922C9.93848 18.7578 9.5713 18.5156 9.24317 18.2656C8.91505 18 8.64942 17.7109 8.4463 17.3984C8.24317 17.0859 8.14161 16.7578 8.14161 16.4141V16.3203ZM12.9463 5.46875C12.7432 5.46875 12.5635 5.57031 12.4072 5.77344C12.251 5.97656 12.1104 6.24219 11.9854 6.57031C11.876 6.88281 11.7822 7.23438 11.7041 7.625C11.6416 8 11.5791 8.375 11.5166 8.75C11.4697 9.10938 11.4385 9.4375 11.4229 9.73438C11.4072 10.0312 11.3994 10.25 11.3994 10.3906C11.3994 10.4375 11.3994 10.5234 11.3994 10.6484C11.3994 10.7578 11.3994 10.875 11.3994 11C11.3994 11.125 11.3994 11.25 11.3994 11.375C11.3994 11.4844 11.3994 11.5625 11.3994 11.6094C11.7744 11.3594 12.1338 11.0859 12.4775 10.7891C12.8213 10.4922 13.126 10.1797 13.3916 9.85156C13.6729 9.50781 13.8916 9.14062 14.0479 8.75C14.2197 8.34375 14.3057 7.89844 14.3057 7.41406C14.3057 7.19531 14.2822 6.96875 14.2354 6.73438C14.1885 6.5 14.1104 6.28906 14.001 6.10156C13.9072 5.91406 13.7666 5.76562 13.5791 5.65625C13.4072 5.53125 13.1963 5.46875 12.9463 5.46875Z" fill="#FED201"/>
</svg>
