<svg width="29" height="25" viewBox="0 0 29 25" fill="none" xmlns="http://www.w3.org/2000/svg">
<path d="M9.66663 2.45605H19.3333C20.2947 2.45605 21.2167 2.78529 21.8966 3.37135C22.5764 3.9574 22.9583 4.75225 22.9583 5.58105V21.2061C22.9582 21.6099 22.8219 22.0051 22.566 22.3434C22.3101 22.6817 21.9457 22.9486 21.5171 23.1117C21.0884 23.2747 20.614 23.3268 20.1517 23.2616C19.6893 23.1964 19.2589 23.0168 18.9128 22.7446L15.3144 19.9144C15.0918 19.7393 14.8013 19.6422 14.5 19.6422C14.1986 19.6422 13.9082 19.7393 13.6855 19.9144L10.0871 22.7446C9.74103 23.0168 9.31061 23.1964 8.84824 23.2616C8.38588 23.3268 7.91151 23.2747 7.48286 23.1117C7.05422 22.9486 6.68978 22.6817 6.4339 22.3434C6.17802 22.0051 6.04173 21.6099 6.04163 21.2061V5.58105C6.04163 4.75225 6.42354 3.9574 7.10336 3.37135C7.78318 2.78529 8.70522 2.45605 9.66663 2.45605ZM10.875 10.7894C10.5545 10.7894 10.2471 10.8991 10.0205 11.0945C9.79393 11.2898 9.66663 11.5548 9.66663 11.8311C9.66663 12.1073 9.79393 12.3723 10.0205 12.5676C10.2471 12.763 10.5545 12.8727 10.875 12.8727H18.125C18.4454 12.8727 18.7528 12.763 18.9794 12.5676C19.206 12.3723 19.3333 12.1073 19.3333 11.8311C19.3333 11.5548 19.206 11.2898 18.9794 11.0945C18.7528 10.8991 18.4454 10.7894 18.125 10.7894H10.875Z" fill="#1AB65C"/>
</svg>
