<svg width="19" height="19" viewBox="0 0 19 19" fill="none" xmlns="http://www.w3.org/2000/svg">
<g clip-path="url(#clip0_2_1723)">
<path fill-rule="evenodd" clip-rule="evenodd" d="M19 0H0V19H19V0ZM2.77083 3.95833C2.66585 3.95833 2.56517 4.00004 2.49094 4.07427C2.4167 4.1485 2.375 4.24919 2.375 4.35417C2.375 4.45915 2.4167 4.55983 2.49094 4.63406C2.56517 4.7083 2.66585 4.75 2.77083 4.75H16.2292C16.3341 4.75 16.4348 4.7083 16.5091 4.63406C16.5833 4.55983 16.625 4.45915 16.625 4.35417C16.625 4.24919 16.5833 4.1485 16.5091 4.07427C16.4348 4.00004 16.3341 3.95833 16.2292 3.95833H2.77083ZM2.375 9.5C2.375 9.39502 2.4167 9.29434 2.49094 9.2201C2.56517 9.14587 2.66585 9.10417 2.77083 9.10417H16.2292C16.3341 9.10417 16.4348 9.14587 16.5091 9.2201C16.5833 9.29434 16.625 9.39502 16.625 9.5C16.625 9.60498 16.5833 9.70566 16.5091 9.7799C16.4348 9.85413 16.3341 9.89583 16.2292 9.89583H2.77083C2.66585 9.89583 2.56517 9.85413 2.49094 9.7799C2.4167 9.70566 2.375 9.60498 2.375 9.5ZM2.77083 14.25C2.66585 14.25 2.56517 14.2917 2.49094 14.3659C2.4167 14.4402 2.375 14.5409 2.375 14.6458C2.375 14.7508 2.4167 14.8515 2.49094 14.9257C2.56517 15 2.66585 15.0417 2.77083 15.0417H16.2292C16.3341 15.0417 16.4348 15 16.5091 14.9257C16.5833 14.8515 16.625 14.7508 16.625 14.6458C16.625 14.5409 16.5833 14.4402 16.5091 14.3659C16.4348 14.2917 16.3341 14.25 16.2292 14.25H2.77083Z" fill="#1AB65C"/>
</g>
<defs>
<clipPath id="clip0_2_1723">
<rect width="19" height="19" rx="3" fill="white"/>
</clipPath>
</defs>
</svg>
