<svg width="22" height="22" viewBox="0 0 22 22" fill="none" xmlns="http://www.w3.org/2000/svg">
<path d="M9.625 11.4056L7.84437 9.625L6.875 10.5944L9.625 13.3444L15.125 7.84437L14.1556 6.875L9.625 11.4056Z" fill="#212121"/>
<path d="M11 20.625L6.754 18.3611C5.54355 17.7171 4.53129 16.7557 3.82589 15.5799C3.12048 14.4042 2.74855 13.0586 2.75 11.6875V2.75C2.75037 2.38544 2.89535 2.03591 3.15313 1.77813C3.41092 1.52035 3.76044 1.37536 4.125 1.375H17.875C18.2396 1.37536 18.5891 1.52035 18.8469 1.77813C19.1047 2.03591 19.2496 2.38544 19.25 2.75V11.6875C19.2515 13.0586 18.8795 14.4042 18.1741 15.5799C17.4687 16.7557 16.4565 17.7171 15.246 18.3611L11 20.625ZM4.125 2.75V11.6875C4.12386 12.8094 4.42826 13.9104 5.00553 14.8723C5.5828 15.8343 6.41113 16.6208 7.40163 17.1476L11 19.0664L14.5984 17.1483C15.589 16.6215 16.4174 15.8348 16.9947 14.8727C17.5719 13.9106 17.8763 12.8095 17.875 11.6875V2.75H4.125Z" fill="#212121"/>
</svg>
