<svg width="23" height="17" viewBox="0 0 23 17" fill="none" xmlns="http://www.w3.org/2000/svg">
<path d="M8.16 4.08C8.16 6.33332 6.33332 8.16 4.08 8.16C1.82668 8.16 0 6.33332 0 4.08C0 1.82668 1.82668 0 4.08 0C6.33332 0 8.16 1.82668 8.16 4.08ZM2.31988 4.08C2.31988 5.05208 3.10792 5.84012 4.08 5.84012C5.05208 5.84012 5.84012 5.05208 5.84012 4.08C5.84012 3.10792 5.05208 2.31988 4.08 2.31988C3.10792 2.31988 2.31988 3.10792 2.31988 4.08Z" fill="#1AB65C"/>
<path d="M14.6403 12.08C14.6403 14.3333 16.467 16.16 18.7203 16.16C20.9736 16.16 22.8003 14.3333 22.8003 12.08C22.8003 9.82668 20.9736 8 18.7203 8C16.467 8 14.6403 9.82668 14.6403 12.08ZM20.4804 12.08C20.4804 13.0521 19.6924 13.8401 18.7203 13.8401C17.7482 13.8401 16.9602 13.0521 16.9602 12.08C16.9602 11.1079 17.7482 10.3199 18.7203 10.3199C19.6924 10.3199 20.4804 11.1079 20.4804 12.08Z" fill="#1AB65C"/>
<rect x="10" y="3" width="13" height="2" rx="1" fill="#1AB65C"/>
<rect width="13" height="2" rx="1" transform="matrix(-1 0 0 1 13 10.5601)" fill="#1AB65C"/>
</svg>
