<svg width="28" height="28" viewBox="0 0 28 28" fill="none" xmlns="http://www.w3.org/2000/svg">
<path d="M22.1667 5.83333V22.1667H5.83333V5.83333H22.1667ZM22.1667 3.5H5.83333C4.55 3.5 3.5 4.55 3.5 5.83333V22.1667C3.5 23.45 4.55 24.5 5.83333 24.5H22.1667C23.45 24.5 24.5 23.45 24.5 22.1667V5.83333C24.5 4.55 23.45 3.5 22.1667 3.5ZM11.6667 21V16.3333H12.8333V13.4167C12.8333 12.1333 11.7833 11.0833 10.5 11.0833H9.33333C8.05 11.0833 7 12.1333 7 13.4167V16.3333H8.16667V21H11.6667ZM9.91667 9.91667C10.3034 9.91667 10.6744 9.76302 10.9479 9.48953C11.2214 9.21604 11.375 8.84511 11.375 8.45833C11.375 8.07156 11.2214 7.70063 10.9479 7.42714C10.6744 7.15365 10.3034 7 9.91667 7C9.52989 7 9.15896 7.15365 8.88547 7.42714C8.61198 7.70063 8.45833 8.07156 8.45833 8.45833C8.45833 8.84511 8.61198 9.21604 8.88547 9.48953C9.15896 9.76302 9.52989 9.91667 9.91667 9.91667ZM21 12.8333L18.0833 8.16667L15.1667 12.8333H21ZM15.1667 15.1667L18.0833 19.8333L21 15.1667H15.1667Z" fill="#0FA958"/>
</svg>
