<svg width="26" height="20" viewBox="0 0 26 20" fill="none" xmlns="http://www.w3.org/2000/svg">
<path d="M23.3395 7.399L19.0383 1.39998L21.0864 0L25.3864 5.99902L23.3395 7.399ZM20.9852 10.4992L18.8358 7.49786L8.59877 14.499L10.7481 17.4979L8.70124 18.8991L2.96789 10.8995L5.0148 9.49957L7.16418 12.4997L17.4012 5.4986L15.2519 2.49847L17.2988 1.0985L23.0321 9.09679L20.9852 10.498V10.4992ZM23.9531 3.99854L26 2.59856L24.5667 0.599292L22.5198 1.99927L23.9531 3.99854ZM6.96174 18.6L2.66048 12.601L0.613573 14.001L4.91358 20L6.96174 18.6ZM3.48025 18.0007L1.43334 19.4007L0 17.4014L2.04691 16.0015L3.48025 18.0007Z" fill="#1AB65C"/>
</svg>
