<svg width="21" height="21" viewBox="0 0 21 21" fill="none" xmlns="http://www.w3.org/2000/svg">
<path d="M9.71261 7.67279C9.54461 7.86599 9.45011 8.13269 9.45011 8.40044C9.45011 8.53968 9.39479 8.67322 9.29634 8.77167C9.19788 8.87013 9.06434 8.92544 8.92511 8.92544C8.78587 8.92544 8.65233 8.87013 8.55387 8.77167C8.45542 8.67322 8.40011 8.53968 8.40011 8.40044C8.40011 7.90379 8.56916 7.38194 8.92511 6.97874C9.28946 6.56504 9.82811 6.30044 10.5001 6.30044C11.1721 6.30044 11.7108 6.56504 12.0751 6.97874C12.4311 7.38299 12.6001 7.90274 12.6001 8.40044C12.6001 8.91494 12.4783 9.31394 12.283 9.64994C12.1119 9.94289 11.8882 10.1749 11.7108 10.3608L11.6667 10.4059C11.4714 10.6107 11.3212 10.7776 11.211 10.9876C11.106 11.1882 11.0251 11.4538 11.0251 11.8581C11.0251 11.9973 10.9698 12.1309 10.8713 12.2293C10.7729 12.3278 10.6393 12.3831 10.5001 12.3831C10.3609 12.3831 10.2273 12.3278 10.1289 12.2293C10.0304 12.1309 9.97511 11.9973 9.97511 11.8581C9.97511 11.2995 10.0906 10.8637 10.2807 10.5004C10.4665 10.1466 10.7112 9.88724 10.9086 9.68039L10.9317 9.65624C11.1291 9.44939 11.2698 9.30239 11.3758 9.12074C11.4756 8.94959 11.5501 8.73329 11.5501 8.40044C11.5501 8.13269 11.4567 7.86494 11.2876 7.67279C11.127 7.49114 10.8781 7.35044 10.5001 7.35044C10.1221 7.35044 9.87326 7.49114 9.71261 7.67279ZM10.5001 14.923C10.5989 14.9268 10.6974 14.9105 10.7898 14.8753C10.8822 14.8401 10.9665 14.7866 11.0377 14.718C11.1089 14.6494 11.1656 14.5672 11.2042 14.4762C11.2429 14.3853 11.2629 14.2874 11.2629 14.1886C11.2629 14.0897 11.2429 13.9919 11.2042 13.9009C11.1656 13.8099 11.1089 13.7277 11.0377 13.6591C10.9665 13.5905 10.8822 13.537 10.7898 13.5018C10.6974 13.4666 10.5989 13.4504 10.5001 13.4541C10.3052 13.4541 10.1182 13.5315 9.98038 13.6694C9.84254 13.8072 9.76511 13.9942 9.76511 14.1891C9.76511 14.384 9.84254 14.571 9.98038 14.7088C10.1182 14.8467 10.3052 14.9241 10.5001 14.9241V14.923ZM2.10011 10.5004C2.10057 8.66486 2.70227 6.87995 3.8132 5.41871C4.92413 3.95748 6.48312 2.90036 8.25173 2.40904C10.0203 1.91772 11.9012 2.01925 13.6066 2.69809C15.3121 3.37694 16.7482 4.59574 17.6954 6.16807C18.6426 7.7404 19.0487 9.57971 18.8515 11.4047C18.6544 13.2297 17.8649 14.9398 16.6038 16.2736C15.3427 17.6074 13.6794 18.4914 11.8683 18.7904C10.0572 19.0893 8.19809 18.7869 6.57521 17.9292L2.75321 18.8847C2.66524 18.9068 2.57305 18.9057 2.48562 18.8816C2.39819 18.8575 2.31849 18.8111 2.25431 18.7471C2.19012 18.683 2.14363 18.6034 2.11936 18.516C2.0951 18.4286 2.09389 18.3364 2.11586 18.2484L3.07136 14.4253C2.43159 13.2161 2.0981 11.8685 2.10011 10.5004ZM10.5001 3.15044C9.2174 3.15005 7.95693 3.48535 6.84396 4.12302C5.73099 4.76069 4.80427 5.67853 4.15592 6.78531C3.50756 7.89209 3.16014 9.14928 3.14818 10.4319C3.13623 11.7146 3.46015 12.978 4.08776 14.0967C4.15367 14.2134 4.17245 14.3509 4.14026 14.481L3.34646 17.6541L6.51956 16.8603C6.64966 16.8281 6.78715 16.8469 6.90386 16.9128C7.88378 17.4618 8.97648 17.7788 10.098 17.8397C11.2196 17.9005 12.3402 17.7035 13.3737 17.2637C14.4073 16.824 15.3263 16.1532 16.0602 15.3029C16.7941 14.4526 17.3234 13.4454 17.6073 12.3587C17.8913 11.272 17.9224 10.1346 17.6983 9.03398C17.4742 7.93335 17.0009 6.89873 16.3146 6.00956C15.6283 5.1204 14.7473 4.40035 13.7394 3.90472C12.7314 3.40908 11.6233 3.15105 10.5001 3.15044Z" fill="#212121"/>
</svg>
