<svg width="19" height="19" viewBox="0 0 19 19" fill="none" xmlns="http://www.w3.org/2000/svg">
<path d="M11.875 9.5C11.875 10.1299 11.6248 10.734 11.1794 11.1794C10.734 11.6248 10.1299 11.875 9.5 11.875C8.87011 11.875 8.26602 11.6248 7.82062 11.1794C7.37522 10.734 7.125 10.1299 7.125 9.5C7.125 8.87011 7.37522 8.26602 7.82062 7.82062C8.26602 7.37522 8.87011 7.125 9.5 7.125C10.1299 7.125 10.734 7.37522 11.1794 7.82062C11.6248 8.26602 11.875 8.87011 11.875 9.5V9.5Z" stroke="#212121" stroke-width="2" stroke-linecap="round" stroke-linejoin="round"/>
<path d="M1.9458 9.49967C2.95438 6.28788 5.95559 3.95801 9.49988 3.95801C13.045 3.95801 16.0454 6.28788 17.054 9.49967C16.0454 12.7115 13.045 15.0413 9.49988 15.0413C5.95559 15.0413 2.95438 12.7115 1.9458 9.49967V9.49967Z" stroke="#212121" stroke-width="2" stroke-linecap="round" stroke-linejoin="round"/>
</svg>
