<svg width="28" height="28" viewBox="0 0 28 28" fill="none" xmlns="http://www.w3.org/2000/svg">
<path d="M14 15.1663C14.6981 15.1663 15.3802 15.375 15.9587 15.7656C16.5372 16.1562 16.9857 16.7108 17.2466 17.3582C17.5075 18.0057 17.5688 18.7163 17.4227 19.3989C17.2766 20.0815 16.9298 20.7048 16.4267 21.1887L14.1984 23.333H17.5V25.6663H10.5V23.655L14.8085 19.5075C14.9476 19.3739 15.0513 19.2079 15.1104 19.0243C15.1696 18.8408 15.1824 18.6455 15.1475 18.4558C15.1127 18.2661 15.0315 18.0881 14.911 17.9375C14.7905 17.7869 14.6346 17.6686 14.4572 17.593C14.2798 17.5175 14.0864 17.4871 13.8943 17.5046C13.7023 17.522 13.5176 17.5868 13.3567 17.6932C13.1959 17.7995 13.0639 17.944 12.9725 18.1139C12.8812 18.2837 12.8334 18.4735 12.8334 18.6663H10.5C10.5 17.7381 10.8688 16.8478 11.5252 16.1915C12.1815 15.5351 13.0718 15.1663 14 15.1663ZM21 15.1663V19.833H23.3334V15.1663H25.6667V25.6663H23.3334V22.1663H18.6667V15.1663H21ZM4.66671 13.9997C4.66527 15.3992 4.97918 16.7811 5.58511 18.0426C6.19104 19.3042 7.07342 20.413 8.16671 21.2867V24.1053C6.39245 23.0817 4.91916 21.6087 3.89512 19.8346C2.87108 18.0606 2.33243 16.0481 2.33338 13.9997H4.66671ZM14 2.33301C20.0492 2.33301 25.0239 6.93785 25.6084 12.833H23.261C23.0238 10.952 22.2195 9.18786 20.955 7.77524C19.6906 6.36262 18.0259 5.36851 16.1826 4.92519C14.3393 4.48187 12.4047 4.61035 10.6362 5.29355C8.86764 5.97674 7.34909 7.18225 6.28254 8.74968H9.33337V11.083H2.33338V4.08301H4.66671V6.99968C5.75216 5.54938 7.16105 4.37236 8.78132 3.56223C10.4016 2.75209 12.1885 2.3312 14 2.33301Z" fill="#1AB65C"/>
</svg>
