<svg width="25" height="25" viewBox="0 0 25 25" fill="none" xmlns="http://www.w3.org/2000/svg">
<path d="M18.75 10.4168C18.75 8.75923 18.0916 7.16952 16.9195 5.99741C15.7474 4.82531 14.1576 4.16683 12.5 4.16683C10.8424 4.16683 9.25273 4.82531 8.08062 5.99741C6.90852 7.16952 6.25004 8.75923 6.25004 10.4168V18.7502H18.75V10.4168ZM20.8334 19.445L21.25 20.0002C21.3081 20.0775 21.3434 20.1696 21.3521 20.2659C21.3608 20.3622 21.3425 20.4591 21.2992 20.5456C21.256 20.6321 21.1895 20.7049 21.1072 20.7557C21.0249 20.8066 20.9301 20.8335 20.8334 20.8335H4.16671C4.06998 20.8335 3.97517 20.8066 3.89289 20.7557C3.81061 20.7049 3.74412 20.6321 3.70086 20.5456C3.6576 20.4591 3.63929 20.3622 3.64798 20.2659C3.65667 20.1696 3.69201 20.0775 3.75004 20.0002L4.16671 19.445V10.4168C4.16671 8.20669 5.04468 6.08708 6.60748 4.52427C8.17029 2.96147 10.2899 2.0835 12.5 2.0835C14.7102 2.0835 16.8298 2.96147 18.3926 4.52427C19.9554 6.08708 20.8334 8.20669 20.8334 10.4168V19.445ZM9.89587 21.8752H15.1042C15.1042 22.5658 14.8298 23.2282 14.3415 23.7166C13.8531 24.205 13.1907 24.4793 12.5 24.4793C11.8094 24.4793 11.147 24.205 10.6586 23.7166C10.1702 23.2282 9.89587 22.5658 9.89587 21.8752Z" fill="black"/>
</svg>
