<svg width="32" height="32" viewBox="0 0 32 32" fill="none" xmlns="http://www.w3.org/2000/svg">
<path fill-rule="evenodd" clip-rule="evenodd" d="M4.66663 13.7573C4.66663 7.62418 9.7918 2.66699 15.9912 2.66699C22.2081 2.66699 27.3333 7.62418 27.3333 13.7573C27.3333 16.8479 26.2093 19.7172 24.3593 22.1491C22.3184 24.8317 19.8028 27.1689 16.9713 29.0036C16.3233 29.4275 15.7385 29.4595 15.0272 29.0036C12.1796 27.1689 9.66407 24.8317 7.64063 22.1491C5.78927 19.7172 4.66663 16.8479 4.66663 13.7573ZM12.2589 14.1027C12.2589 16.1573 13.9355 17.7732 15.9912 17.7732C18.0483 17.7732 19.741 16.1573 19.741 14.1027C19.741 12.0641 18.0483 10.3694 15.9912 10.3694C13.9355 10.3694 12.2589 12.0641 12.2589 14.1027Z" fill="#1AB65C"/>
</svg>
