<svg width="34" height="26" viewBox="0 0 34 26" fill="none" xmlns="http://www.w3.org/2000/svg">
<g clip-path="url(#clip0_2_565)">
<path d="M12.5182 2.73633H21.3524V18.6098H12.5182V2.73633Z" fill="#FF5F00"/>
<path d="M13.0792 10.6734C13.0792 7.44823 14.5936 4.58758 16.9213 2.73656C15.2106 1.39043 13.0512 0.577148 10.6955 0.577148C5.11431 0.577148 0.599121 5.09233 0.599121 10.6734C0.599121 16.2543 5.11431 20.7696 10.6953 20.7696C13.0511 20.7696 15.2105 19.9563 16.9213 18.61C14.5936 16.7871 13.0792 13.8985 13.0792 10.6734Z" fill="#EB001B"/>
<path d="M33.2715 10.6734C33.2715 16.2543 28.7563 20.7696 23.1753 20.7696C20.8195 20.7696 18.6601 19.9563 16.9494 18.61C19.3051 16.7591 20.7916 13.8985 20.7916 10.6734C20.7916 7.44823 19.277 4.58758 16.9494 2.73656C18.66 1.39043 20.8195 0.577148 23.1753 0.577148C28.7563 0.577148 33.2716 5.12044 33.2716 10.6734H33.2715Z" fill="#F79E1B"/>
</g>
<defs>
<clipPath id="clip0_2_565">
<rect x="0.599121" y="0.577148" width="32.7048" height="25.4229" rx="3" fill="white"/>
</clipPath>
</defs>
</svg>
