<svg width="28" height="28" viewBox="0 0 28 28" fill="none" xmlns="http://www.w3.org/2000/svg">
<path d="M9.45004 15.563L12.7517 12.2614L4.56171 4.08304C3.6877 4.95957 3.1969 6.14689 3.1969 7.38471C3.1969 8.62253 3.6877 9.80984 4.56171 10.6864L9.45004 15.563ZM17.36 13.4514C19.145 14.2797 21.6534 13.6964 23.5084 11.8414C25.7367 9.61304 26.1684 6.41637 24.4534 4.70137C22.75 2.99804 19.5534 3.41804 17.3134 5.64637C15.4584 7.50137 14.875 10.0097 15.7034 11.7947L4.31671 23.1814L5.96171 24.8264L14 16.8114L22.0267 24.838L23.6717 23.193L15.645 15.1664L17.36 13.4514Z" fill="#1AB65C"/>
</svg>
