<svg width="29" height="25" viewBox="0 0 29 25" fill="none" xmlns="http://www.w3.org/2000/svg">
<path d="M9.66663 4.16683C9.34616 4.16683 9.03881 4.27658 8.81221 4.47193C8.5856 4.66728 8.45829 4.93223 8.45829 5.2085V20.8335L12.0567 18.0033C12.7245 17.478 13.5959 17.1868 14.5 17.1868C15.404 17.1868 16.2754 17.478 16.9432 18.0033L20.5416 20.8335V5.2085C20.5416 4.93223 20.4143 4.66728 20.1877 4.47193C19.9611 4.27658 19.6538 4.16683 19.3333 4.16683H9.66663ZM9.66663 2.0835H19.3333C20.2947 2.0835 21.2167 2.41274 21.8966 2.99879C22.5764 3.58484 22.9583 4.37969 22.9583 5.2085V20.8335C22.9582 21.2374 22.8219 21.6325 22.566 21.9708C22.3101 22.3092 21.9457 22.5761 21.5171 22.7391C21.0884 22.9021 20.614 22.9542 20.1517 22.889C19.6893 22.8239 19.2589 22.6443 18.9128 22.372L15.3144 19.5418C15.0918 19.3667 14.8013 19.2697 14.5 19.2697C14.1986 19.2697 13.9082 19.3667 13.6855 19.5418L10.0871 22.372C9.74103 22.6443 9.31061 22.8239 8.84824 22.889C8.38588 22.9542 7.91151 22.9021 7.48286 22.7391C7.05422 22.5761 6.68978 22.3092 6.4339 21.9708C6.17802 21.6325 6.04173 21.2374 6.04163 20.8335V5.2085C6.04163 4.37969 6.42354 3.58484 7.10336 2.99879C7.78318 2.41274 8.70522 2.0835 9.66663 2.0835V2.0835ZM10.875 10.4168H18.125C18.4454 10.4168 18.7528 10.5266 18.9794 10.7219C19.206 10.9173 19.3333 11.1822 19.3333 11.4585C19.3333 11.7348 19.206 11.9997 18.9794 12.1951C18.7528 12.3904 18.4454 12.5002 18.125 12.5002H10.875C10.5545 12.5002 10.2471 12.3904 10.0205 12.1951C9.79393 11.9997 9.66663 11.7348 9.66663 11.4585C9.66663 11.1822 9.79393 10.9173 10.0205 10.7219C10.2471 10.5266 10.5545 10.4168 10.875 10.4168Z" fill="black"/>
</svg>
