<svg width="28" height="28" viewBox="0 0 28 28" fill="none" xmlns="http://www.w3.org/2000/svg">
<path d="M14 3.5C8.16667 3.5 3.5 8.16667 3.5 14C3.5 19.8333 8.16667 24.5 14 24.5C19.8333 24.5 24.5 19.8333 24.5 14C24.5 8.16667 19.8333 3.5 14 3.5ZM14 22.1667C9.45 22.1667 5.83333 18.55 5.83333 14C5.83333 9.45 9.45 5.83333 14 5.83333C18.55 5.83333 22.1667 9.45 22.1667 14C22.1667 18.55 18.55 22.1667 14 22.1667ZM23.9167 23.9167C26.4833 21.35 28 17.85 28 14C28 10.15 26.4833 6.65 23.9167 4.08333L22.6333 5.36667C24.85 7.58333 26.25 10.6167 26.25 14C26.25 17.3833 24.85 20.4167 22.6333 22.6333L23.9167 23.9167ZM5.36667 22.6333C3.15 20.4167 1.75 17.3833 1.75 14C1.75 10.6167 3.15 7.58333 5.36667 5.36667L4.08333 4.08333C1.51667 6.65 0 10.15 0 14C0 17.85 1.51667 21.35 4.08333 23.9167L5.36667 22.6333ZM11.0833 8.16667V19.8333H13.4167V15.1667H15.75C16.3688 15.1667 16.9623 14.9208 17.3999 14.4832C17.8375 14.0457 18.0833 13.4522 18.0833 12.8333V10.5C18.0833 9.88116 17.8375 9.28767 17.3999 8.85008C16.9623 8.4125 16.3688 8.16667 15.75 8.16667H11.0833ZM13.4167 10.5H15.75V12.8333H13.4167V10.5Z" fill="#1AB65C"/>
</svg>
