<svg width="19" height="19" viewBox="0 0 19 19" fill="none" xmlns="http://www.w3.org/2000/svg">
<path d="M9.33333 0C10.571 0 11.758 0.491665 12.6332 1.36683C13.5083 2.242 14 3.42899 14 4.66667C14 5.90434 13.5083 7.09133 12.6332 7.9665C11.758 8.84167 10.571 9.33333 9.33333 9.33333C8.09566 9.33333 6.90867 8.84167 6.0335 7.9665C5.15833 7.09133 4.66667 5.90434 4.66667 4.66667C4.66667 3.42899 5.15833 2.242 6.0335 1.36683C6.90867 0.491665 8.09566 0 9.33333 0ZM9.33333 2.33333C8.71449 2.33333 8.121 2.57917 7.68342 3.01675C7.24583 3.45434 7 4.04783 7 4.66667C7 5.2855 7.24583 5.879 7.68342 6.31658C8.121 6.75417 8.71449 7 9.33333 7C9.95217 7 10.5457 6.75417 10.9832 6.31658C11.4208 5.879 11.6667 5.2855 11.6667 4.66667C11.6667 4.04783 11.4208 3.45434 10.9832 3.01675C10.5457 2.57917 9.95217 2.33333 9.33333 2.33333ZM9.33333 10.5C12.4483 10.5 18.6667 12.0517 18.6667 15.1667V18.6667H0V15.1667C0 12.0517 6.21833 10.5 9.33333 10.5ZM9.33333 12.7167C5.86833 12.7167 2.21667 14.42 2.21667 15.1667V16.45H16.45V15.1667C16.45 14.42 12.7983 12.7167 9.33333 12.7167Z" fill="#212121"/>
</svg>
