<svg width="22" height="22" viewBox="0 0 22 22" fill="none" xmlns="http://www.w3.org/2000/svg">
<path d="M16.4999 9.16634C16.4999 7.70765 15.9205 6.3087 14.889 5.27725C13.8576 4.2458 12.4586 3.66634 10.9999 3.66634C9.54123 3.66634 8.14228 4.2458 7.11083 5.27725C6.07938 6.3087 5.49992 7.70765 5.49992 9.16634V16.4997H16.4999V9.16634ZM18.3332 17.1111L18.6999 17.5997C18.751 17.6678 18.7821 17.7487 18.7897 17.8335C18.7974 17.9183 18.7813 18.0035 18.7432 18.0796C18.7051 18.1558 18.6466 18.2198 18.5742 18.2646C18.5018 18.3093 18.4184 18.333 18.3332 18.333H3.66659C3.58147 18.333 3.49803 18.3093 3.42563 18.2646C3.35322 18.2198 3.29471 18.1558 3.25664 18.0796C3.21857 18.0035 3.20246 17.9183 3.2101 17.8335C3.21775 17.7487 3.24885 17.6678 3.29992 17.5997L3.66659 17.1111V9.16634C3.66659 7.22142 4.4392 5.35616 5.81447 3.98089C7.18974 2.60562 9.055 1.83301 10.9999 1.83301C12.9448 1.83301 14.8101 2.60562 16.1854 3.98089C17.5606 5.35616 18.3332 7.22142 18.3332 9.16634V17.1111ZM8.70825 19.2497H13.2916C13.2916 19.8575 13.0501 20.4404 12.6204 20.8701C12.1906 21.2999 11.6077 21.5413 10.9999 21.5413C10.3921 21.5413 9.80924 21.2999 9.37946 20.8701C8.94969 20.4404 8.70825 19.8575 8.70825 19.2497Z" fill="#212121"/>
</svg>
