<svg width="28" height="28" viewBox="0 0 28 28" fill="none" xmlns="http://www.w3.org/2000/svg">
<path d="M21.763 20.5276L25.1808 23.9436C25.3402 24.1087 25.4284 24.3297 25.4264 24.5591C25.4244 24.7885 25.3323 25.008 25.1701 25.1702C25.0079 25.3325 24.7884 25.4245 24.559 25.4265C24.3296 25.4285 24.1085 25.3403 23.9435 25.1809L20.5258 21.7631C18.2923 23.6767 15.4046 24.6508 12.4684 24.481C9.5323 24.3113 6.77602 23.011 4.77796 20.8528C2.7799 18.6947 1.69538 15.8466 1.75199 12.9061C1.80859 9.96558 3.00191 7.16129 5.08154 5.08166C7.16117 3.00203 9.96546 1.80871 12.906 1.75211C15.8465 1.69551 18.6946 2.78002 20.8527 4.77808C23.0108 6.77614 24.3112 9.53242 24.4809 12.4686C24.6506 15.4047 23.6765 18.2925 21.763 20.5259V20.5276ZM13.125 22.7501C15.6777 22.7501 18.1259 21.7361 19.9309 19.931C21.736 18.126 22.75 15.6778 22.75 13.1251C22.75 10.5724 21.736 8.12428 19.9309 6.31924C18.1259 4.5142 15.6777 3.50014 13.125 3.50014C10.5723 3.50014 8.12415 4.5142 6.31912 6.31924C4.51408 8.12428 3.50002 10.5724 3.50002 13.1251C3.50002 15.6778 4.51408 18.126 6.31912 19.931C8.12415 21.7361 10.5723 22.7501 13.125 22.7501Z" fill="black"/>
</svg>
