<svg width="33" height="33" viewBox="0 0 33 33" fill="none" xmlns="http://www.w3.org/2000/svg">
<path d="M11 15.125C11.3896 15.125 11.7164 14.993 11.9804 14.729C12.2435 14.4659 12.375 14.1396 12.375 13.75C12.375 13.3604 12.2435 13.0336 11.9804 12.7696C11.7164 12.5065 11.3896 12.375 11 12.375C10.6104 12.375 10.2836 12.5065 10.0196 12.7696C9.75654 13.0336 9.625 13.3604 9.625 13.75C9.625 14.1396 9.75654 14.4659 10.0196 14.729C10.2836 14.993 10.6104 15.125 11 15.125ZM16.5 15.125C16.8896 15.125 17.2164 14.993 17.4804 14.729C17.7435 14.4659 17.875 14.1396 17.875 13.75C17.875 13.3604 17.7435 13.0336 17.4804 12.7696C17.2164 12.5065 16.8896 12.375 16.5 12.375C16.1104 12.375 15.7841 12.5065 15.521 12.7696C15.257 13.0336 15.125 13.3604 15.125 13.75C15.125 14.1396 15.257 14.4659 15.521 14.729C15.7841 14.993 16.1104 15.125 16.5 15.125ZM22 15.125C22.3896 15.125 22.7159 14.993 22.979 14.729C23.243 14.4659 23.375 14.1396 23.375 13.75C23.375 13.3604 23.243 13.0336 22.979 12.7696C22.7159 12.5065 22.3896 12.375 22 12.375C21.6104 12.375 21.2841 12.5065 21.021 12.7696C20.757 13.0336 20.625 13.3604 20.625 13.75C20.625 14.1396 20.757 14.4659 21.021 14.729C21.2841 14.993 21.6104 15.125 22 15.125ZM2.75 26.9156V5.5C2.75 4.74375 3.0195 4.09612 3.5585 3.55712C4.09658 3.01904 4.74375 2.75 5.5 2.75H27.5C28.2563 2.75 28.9039 3.01904 29.4429 3.55712C29.981 4.09612 30.25 4.74375 30.25 5.5V22C30.25 22.7563 29.981 23.4039 29.4429 23.9429C28.9039 24.481 28.2563 24.75 27.5 24.75H8.25L5.0875 27.9125C4.65208 28.3479 4.15342 28.4451 3.5915 28.204C3.0305 27.9638 2.75 27.5344 2.75 26.9156Z" fill="#1AB65C"/>
</svg>
