<svg width="28" height="28" viewBox="0 0 28 28" fill="none" xmlns="http://www.w3.org/2000/svg">
<path d="M19.6289 28V26.5957C19.6289 26.2232 19.4812 25.866 19.2182 25.6027C18.9553 25.3393 18.5987 25.1914 18.2268 25.1914C17.855 25.1914 17.4983 25.3393 17.2354 25.6027C16.9725 25.866 16.8248 26.2232 16.8248 26.5957V28H14.0206V26.5957C14.0206 26.2232 13.8729 25.866 13.61 25.6027C13.347 25.3393 12.9904 25.1914 12.6186 25.1914C12.2467 25.1914 11.8901 25.3393 11.6272 25.6027C11.3642 25.866 11.2165 26.2232 11.2165 26.5957V28H8.41238V26.5957C8.41238 26.2232 8.26466 25.866 8.00172 25.6027C7.73878 25.3393 7.38216 25.1914 7.01031 25.1914C6.63846 25.1914 6.28184 25.3393 6.01891 25.6027C5.75597 25.866 5.60825 26.2232 5.60825 26.5957V28H2.80413C2.06043 28 1.34718 27.7041 0.821309 27.1774C0.295434 26.6507 0 25.9363 0 25.1914V2.80803C0.000118087 2.25279 0.164541 1.71005 0.472495 1.24837C0.780449 0.786686 1.21812 0.426787 1.7302 0.214142C2.24228 0.0014962 2.8058 -0.0543547 3.34956 0.0536454C3.89332 0.161646 4.39292 0.428651 4.78524 0.820926L27.1762 23.2029C27.5689 23.5953 27.8367 24.0955 27.9455 24.6403C28.0543 25.1852 27.9994 25.7501 27.7876 26.2636C27.5758 26.7772 27.2167 27.2163 26.7557 27.5253C26.2948 27.8344 25.7526 27.9996 25.1979 28H19.6289ZM5.60825 13.1339V20.9784C5.60825 21.3509 5.75597 21.7081 6.01891 21.9714C6.28184 22.2348 6.63846 22.3827 7.01031 22.3827H14.8422C15.1195 22.3827 15.3905 22.3003 15.621 22.146C15.8515 21.9917 16.0312 21.7724 16.1373 21.5158C16.2434 21.2592 16.2711 20.9769 16.2171 20.7045C16.163 20.4322 16.0295 20.182 15.8335 19.9856L8.00157 12.1411C7.80549 11.9448 7.55569 11.8111 7.28376 11.7569C7.01183 11.7027 6.72996 11.7305 6.47381 11.8368C6.21765 11.9431 5.9987 12.123 5.84464 12.3539C5.69057 12.5848 5.60831 12.8562 5.60825 13.1339Z" fill="#0FA958"/>
</svg>
