<svg width="28" height="28" viewBox="0 0 28 28" fill="none" xmlns="http://www.w3.org/2000/svg">
<path d="M22.1701 9.33833C23.4601 9.33833 24.5058 8.29261 24.5058 7.00266C24.5058 5.71271 23.4601 4.66699 22.1701 4.66699C20.8802 4.66699 19.8345 5.71271 19.8345 7.00266C19.8345 8.29261 20.8802 9.33833 22.1701 9.33833Z" fill="#0FA958"/>
<path d="M22.0209 15.4224C21.3594 15.9509 20.8799 16.3336 19.8299 16.3336C18.781 16.3336 18.3272 15.9708 17.6412 15.4224C16.8479 14.7889 15.862 14.0003 13.993 14.0003C12.1252 14.0003 11.1405 14.7889 10.3484 15.4224C9.66237 15.9708 9.21087 16.3336 8.16087 16.3336C7.11321 16.3336 6.66054 15.9708 5.97571 15.4236C5.18354 14.7889 4.20004 14.0003 2.33337 14.0003V16.3336C3.37987 16.3336 3.83254 16.6964 4.51737 17.2436C5.30954 17.8783 6.29421 18.6669 8.16087 18.6669C10.0275 18.6669 11.0145 17.8783 11.8067 17.2436C12.4915 16.6953 12.9454 16.3336 13.993 16.3336C15.043 16.3336 15.5225 16.7163 16.184 17.2448C16.9762 17.8783 17.962 18.6669 19.8299 18.6669C21.6989 18.6669 22.6847 17.8783 23.478 17.2448C24.164 16.6964 24.6179 16.3336 25.6667 16.3336V14.0003C23.7989 14.0003 22.813 14.7889 22.0209 15.4224ZM19.8299 22.1669C18.781 22.1669 18.3272 21.8041 17.6412 21.2558C16.8479 20.6223 15.862 19.8336 13.993 19.8336C12.1252 19.8336 11.1405 20.6223 10.3484 21.2558C9.66237 21.8041 9.21087 22.1669 8.16087 22.1669C7.11321 22.1669 6.66054 21.8041 5.97571 21.2569C5.18354 20.6223 4.20004 19.8336 2.33337 19.8336V22.1669C3.37987 22.1669 3.83254 22.5298 4.51737 23.0769C5.30954 23.7116 6.29421 24.5003 8.16087 24.5003C10.0275 24.5003 11.0145 23.7116 11.8067 23.0769C12.4915 22.5286 12.9454 22.1669 13.993 22.1669C15.043 22.1669 15.5225 22.5496 16.184 23.0781C16.9762 23.7116 17.962 24.5003 19.8299 24.5003C21.6989 24.5003 22.6847 23.7116 23.478 23.0781C24.164 22.5298 24.6179 22.1669 25.6667 22.1669V19.8336C23.7989 19.8336 22.813 20.6223 22.0209 21.2558C21.3594 21.7843 20.8799 22.1669 19.8299 22.1669ZM12.8334 6.32243L15.288 8.77709L12.8882 11.7754C13.2219 11.7101 13.5835 11.6669 13.993 11.6669C15.862 11.6669 16.8479 12.4556 17.6412 13.0891C18.3272 13.6374 18.781 14.0003 19.8299 14.0003C20.8799 14.0003 21.3594 13.6176 22.0209 13.0891C22.1749 12.9666 22.3405 12.8359 22.5144 12.7088L20.069 10.2704L20.0749 10.2646L13.6582 3.84793C13.55 3.73949 13.4214 3.65346 13.2799 3.59477C13.1383 3.53607 12.9866 3.50586 12.8334 3.50586C12.6802 3.50586 12.5284 3.53607 12.3869 3.59477C12.2454 3.65346 12.1168 3.73949 12.0085 3.84793L7.34187 8.51459L8.99154 10.1643L12.8334 6.32243Z" fill="#0FA958"/>
</svg>
