<svg width="22" height="26" viewBox="0 0 22 26" fill="none" xmlns="http://www.w3.org/2000/svg">
<path d="M7.01012 26C6.14602 25.9534 5.33287 25.5783 4.73855 24.9522C4.02753 24.2713 3.39304 23.5154 2.84627 22.6978C1.99217 21.4804 1.31703 20.1478 0.841297 18.7405C0.302886 17.2264 0.0196449 15.6341 0.00302898 14.028C-0.0387986 12.4521 0.353259 10.8948 1.13675 9.52481C1.71059 8.5373 2.52908 7.71266 3.51413 7.12958C4.48829 6.54899 5.59993 6.23647 6.73528 6.22402C7.59116 6.27443 8.43223 6.46916 9.2226 6.79992C9.85336 7.07623 10.5157 7.27048 11.196 7.37718C11.9463 7.22071 12.6795 6.99163 13.3851 6.69322C14.2201 6.36866 15.1043 6.1869 16.0002 6.15563C16.1198 6.15563 16.2379 6.15563 16.352 6.16931C18.3171 6.22539 20.1448 7.18567 21.2992 8.76835C20.3983 9.24798 19.6486 9.9669 19.1336 10.8452C18.6186 11.7235 18.3583 12.7268 18.3817 13.7435C18.3727 14.5209 18.5294 15.2914 18.8413 16.0042C19.1533 16.717 19.6135 17.3558 20.1915 17.8787C20.7178 18.3776 21.3305 18.7776 22 19.0592C21.8626 19.4696 21.7045 19.8663 21.5369 20.2657C21.1562 21.1483 20.6866 21.9903 20.1352 22.7786C19.6138 23.5682 19.0069 24.2985 18.3254 24.9563C17.7037 25.5703 16.875 25.9325 16.0002 25.9726C15.2586 25.9399 14.5301 25.7668 13.8537 25.4624C13.1243 25.1461 12.3404 24.9729 11.545 24.9522C10.7272 24.9682 9.92013 25.1405 9.16763 25.4597C8.51769 25.7516 7.82331 25.9333 7.11319 25.9973L7.01012 26ZM11.3389 6.15563C11.2358 6.15563 11.1328 6.15563 11.0297 6.14332C11.008 5.98049 10.9965 5.81648 10.9953 5.65223C11.0403 4.28587 11.5767 2.98101 12.507 1.97527C13.0273 1.39726 13.6579 0.928081 14.3621 0.595044C15.0184 0.258748 15.7356 0.0564355 16.4716 0C16.4922 0.179197 16.4922 0.354291 16.4922 0.521177C16.4729 1.86607 15.9652 3.15855 15.063 4.15984C14.6262 4.74287 14.0664 5.22366 13.4231 5.56844C12.7797 5.91322 12.0683 6.11364 11.3389 6.15563Z" fill="black"/>
</svg>
