<svg width="31" height="28" viewBox="0 0 31 28" fill="none" xmlns="http://www.w3.org/2000/svg">
<g clip-path="url(#clip0_2_933)">
<path d="M30.7534 8.47C22.1717 -0.491641 8.82479 -0.48836 0.246506 8.47C-0.0760881 8.80688 -0.082385 9.37727 0.229552 9.72672L1.88805 11.5845C2.18546 11.9181 2.66402 11.9252 2.97305 11.6052C10.041 4.29461 20.9579 4.29297 28.0273 11.6052C28.3364 11.9252 28.8149 11.9175 29.1123 11.5845L30.7708 9.72672C31.0823 9.37727 31.076 8.80688 30.7534 8.47ZM15.5 19.25C13.7877 19.25 12.4 20.8168 12.4 22.75C12.4 24.6832 13.7877 26.25 15.5 26.25C17.2122 26.25 18.6 24.6832 18.6 22.75C18.6 20.8168 17.2122 19.25 15.5 19.25ZM25.3168 14.6787C19.7339 9.10438 11.2597 9.11039 5.68313 14.6787C5.34891 15.0123 5.33825 15.5914 5.65552 15.9447L7.32371 17.8035C7.61433 18.1273 8.08224 18.1491 8.39175 17.8473C12.4581 13.8786 18.551 13.8873 22.6077 17.8473C22.9172 18.1491 23.3851 18.1278 23.6757 17.8035L25.3439 15.9447C25.6617 15.5914 25.6505 15.0117 25.3168 14.6787Z" fill="#0FA958"/>
</g>
<defs>
<clipPath id="clip0_2_933">
<rect width="31" height="28" fill="white"/>
</clipPath>
</defs>
</svg>
